<svg
	xmlns="http://www.w3.org/2000/svg"
	viewBox="0 0 602.07 581.58"
	width="80"
>
	<path
		d="M600.35 8.75c-3.06-3.88-7.01-6.15-11.92-6.86-3.58-.52-7.09-.18-10.59.51-8.11 1.61-15.54 4.99-22.76 8.85-14.23 7.63-27.27 17.03-40.02 26.86-22.11 17.06-43 35.57-63.94 54.02-17.74 15.63-35.56 31.17-53.35 46.74-.8.7-1.62 1.4-2.51 1.97-1.24.8-2.55.7-3.76-.11s-1.8-1.98-1.58-3.43c.13-.87.44-1.72.76-2.55 4.44-11.61 8.67-23.31 13.41-34.8 9.41-22.83 19.1-45.54 28.69-68.29 1.04-2.47 1.95-4.93 2.05-7.67.23-6.1-2.61-11.11-7.98-13.62-5.56-2.6-10.58-1.39-15.04 2.51-1.32 1.15-2.56 2.52-3.46 4.02-3.61 6.01-7.31 11.99-10.54 18.21-10.36 19.96-19.22 40.62-28.23 61.21-15.75 35.96-31.53 71.91-47.17 107.92-1.88 4.34-4.39 8.05-7.77 11.28-13.04 12.46-26 25.02-39.13 37.39-21.99 20.73-43.98 41.47-64.99 63.2-13.1 13.55-25.87 27.41-37.45 42.31-6.77 8.71-13.19 17.66-18.05 27.63-2.03 4.17-3.68 8.47-4.42 13.08-1.18 7.34 1.72 12.5 8.64 15.16 1.4.54 2.88.9 4.35 1.24 1.68.38 3.12.99 4.36 2.32 2.69 2.87 6.14 3.76 9.98 3.23 4.75-.66 9.12-2.47 13.14-4.94 6.66-4.09 13.24-8.32 19.68-12.73 8-5.47 15.96-10.97 24.45-15.67 1.16-.65 2.16-.78 3.19.05.94.76 1.11 1.77.69 2.88-.5 1.33-.97 2.67-1.54 3.97-12.06 27.59-24.06 55.21-36.23 82.75-11.09 25.11-22.42 50.11-33.51 75.22-2.26 5.1-3.97 10.45-5.85 15.71-.02.04-.03.09-.05.13-.52 1.6.99 3.11 2.59 2.6.01 0 .02-.01.03-.01 1.26-.41 2.51-.93 3.8-1.23 4.24-.96 7.03 1.17 7.13 5.49.04 1.83-.21 3.67-.36 5.91.9-1.14 1.55-2.07 2.31-2.89 1.57-1.69 3.03-3.53 4.83-4.93 3.03-2.35 6.06-1.73 8.27 1.38.01.01.01.02.02.03.97 1.36 3 1.36 3.93-.03.49-.73.94-1.44 1.32-2.19 3.07-6.01 6.31-11.96 8.98-18.14 15.35-35.55 30.53-71.18 45.82-106.76 8.49-19.75 16.94-39.51 25.68-59.14 4.88-10.97 10.78-21.43 17.81-31.2 8.6-11.96 19.12-22.03 30.95-30.65 13.64-9.94 27.46-19.65 41.48-29.06 39.26-26.35 78.28-53.04 116.52-80.85.43-.31.85-.65 1.3-.93 1.65-1 3.11-.96 4.45.11 1.32 1.05 1.7 2.55 1.04 4.32-.31.83-.7 1.64-1.11 2.42-5.66 10.67-11.16 21.43-17.04 31.99-14.66 26.31-29.65 52.43-44.2 78.81-11.63 21.09-34.87 56-44.05 78.29-6.33 15.38-11.95 30.99-14.89 47.44-1.45 8.09-2.1 16.21-.84 24.39.05.31.1.61.15.91.91 5.17 4.39 9.42 9.08 11.78 1.42.72 2.43 2.05 3.32 4.23 1.04 2.53 1.61 5.25 2.39 7.88.2.68.43 1.35.79 2.48l.28-1.41c2.62-13.52 5.97-26.86 9.89-40.06 8.26-27.8 31.3-68.1 43-94.62 20.46-46.37 44.09-91.15 68.16-135.71 4.64-8.6 9.33-17.17 13.85-25.83 2.43-4.64 4.45-9.47 5.71-14.61 1.64-6.66-.26-11.97-5.88-15.8-3.07-2.1-6.46-3.73-9.56-5.79-3.38-2.25-6.68-2.03-10.33-.69-6.54 2.4-12.72 5.49-18.75 8.92-13.46 7.66-26.33 16.23-38.84 25.33-23.72 17.25-47.27 34.73-70.9 52.09-12.97 9.52-25.95 19.02-39.6 27.55-.9.57-1.8 1.15-2.74 1.65-1.46.77-2.94.74-4.24-.33s-1.64-2.48-1.06-4.08l.54-1.5c5.08-14.1 11.78-27.41 19.6-40.17 13.48-22 29.75-41.83 47.44-60.54 19.63-20.76 40.8-39.87 62.68-58.22 25.88-21.72 52.72-42.22 79.51-62.79 19.1-14.67 38.23-29.31 56.55-44.96 2.19-1.87 4.55-3.36 7.19-4.5 2.1-.92 4.12-2.04 6.17-3.07v-1.07c-.56-.68-1.19-1.27-1.72-1.94ZM274.01 313.51c-2.03 4.63-4.06 9.26-6.28 13.8-1.69 3.47-4.23 6.41-7.23 8.79-3.95 3.14-8.05 6.12-12.26 8.91-4.14 2.74-8.49 5.15-12.92 7.82-.99-1.24-1.97-2.47-2.97-3.73 3.43-4.06 6.72-8.02 10.09-11.9 6.93-7.98 13.88-15.94 20.88-23.85 1.46-1.65 3.17-3.1 4.84-4.56.66-.58 1.45-1.06 2.27-1.38 2.34-.92 4.39.51 4.28 3.01-.06 1.05-.29 2.14-.7 3.09Zm-57.6 92.21c-.18.81-.22 1.29-.4 1.7-14.02 31.92-29.14 63.29-48.83 92.18-14 20.53-29.56 39.83-48.6 56.03-10.42 8.86-21.8 16.22-34.58 21.27-8.44 3.33-17.16 5.11-26.3 4.6-14.12-.79-26.12-6.33-36.12-16.19-10.26-10.11-16.21-22.52-18.96-36.57-1.58-8.05-1.98-16.21-2.41-24.37-1.2-22.52 2.91-44.21 10.15-65.4 9.19-26.91 21.11-52.56 36.17-76.72 5.17-8.29 10.27-16.63 15.54-24.86 6.64-10.36 15.35-18.35 26.96-22.92 4.09-1.61 8.31-2.59 12.68-2.86 2.85-.17 5.69.2 8.34 1.37 4.16 1.84 5.3 4.93 2.97 8.83-4.73 7.93-9.53 15.83-14.47 23.64-8.51 13.44-17.3 26.7-25.7 40.2-10.67 17.15-20.24 34.92-26.63 54.16-4 12.04-7.62 24.21-11.06 36.43-3.77 13.43-3.52 27.04-.79 40.65.94 4.7 1.75 9.47 4.01 13.76 1.45 2.73 3.03 5.47 5 7.83 7.02 8.41 16.99 10.83 27.16 6.76 10.42-4.18 19.75-10.12 27.95-17.79 19.6-18.34 36.24-39.07 49.6-62.36 6.89-12.02 13.33-24.29 19.97-36.45.55-1.01 1.06-2.05 1.68-3.26 1.76.29 3.31.65 4.89.78 3.89.33 7.59-.56 11.19-1.94 6.94-2.65 13.16-6.62 19.28-10.73 3.69-2.47 7.32-5.02 11.31-7.77ZM382.44 22.95c-1.66 4.87-3.39 9.73-5.4 14.46-7.36 17.33-14.89 34.58-22.29 51.9-19.31 45.16-38.57 90.33-57.9 135.48-.57 1.33-1.58 2.57-2.64 3.57-18.88 17.93-37.81 35.81-56.72 53.71-1.41 1.33-2.78 2.7-4.18 4.05-.12-.07-.24-.14-.37-.22.37-.95.72-1.92 1.13-2.86 22.29-51.51 44.63-103 66.87-154.53 8.27-19.16 16.32-38.42 24.44-57.64.61-1.43.98-2.96 1.06-4.79-1.1.67-2.23 1.3-3.31 2.01-20.2 13.28-40.36 26.59-60.58 39.83-13.01 8.51-26.12 16.88-39.12 25.39-3.19 2.09-51.6 39.08-54.55 41.49-11.84 9.68-23.73 20.71-34.35 31.73-.59.61-1.28 1.14-1.83 1.64-1.44-.67-1.1-1.5-.69-2.35 1.06-2.25 2.21-4.46 3.16-6.76 1.29-3.11 2.48-6.27 3.59-9.45.34-.98.42-2.09.42-3.15.01-2.11-.46-2.9-2.56-3.47-1.58-.43-1.87-1.28-1.79-2.71.28-4.97 1.72-9.59 3.89-14.02 3.6-7.35 8.67-13.64 14.4-19.39 3.38-3.4 7.52-7.37 11.07-10.6.85-.77 1.85-1.38 2.82-2 22.59-14.48 90.69-63.39 113.07-78.19 12.89-8.52 25.19-17.93 37.71-27 9.28-6.73 18.5-13.54 27.73-20.33 1.22-.89 2.39-1.85 3.56-2.8 3.49-2.87 7.38-4.83 11.89-5.64 11.16-2.02 21.69 6.15 22.17 17.43.08 1.71-.14 3.57-.7 5.21Z" style="stroke-width:0" />
</svg>
